<mxfile host="65bd71144e">
    <diagram id="D6pkl9RRAdB0jxwl9CHi" name="Page-1">
        <mxGraphModel dx="638" dy="445" grid="0" gridSize="10" guides="0" tooltips="1" connect="0" arrows="0" fold="1" page="0" pageScale="1" pageWidth="100" pageHeight="100" background="#ffffff" math="1" shadow="0">
            <root>
                <mxCell id="0"/>
                <mxCell id="1" parent="0"/>
                <mxCell id="2" value="" style="line;strokeWidth=2;html=1;rotation=-120;rounded=1;" parent="1" vertex="1">
                    <mxGeometry x="318" y="95" width="160" height="10" as="geometry"/>
                </mxCell>
                <mxCell id="3" value="" style="line;strokeWidth=2;html=1;rotation=-60;rounded=1;" parent="1" vertex="1">
                    <mxGeometry x="320" y="94" width="161.25" height="10" as="geometry"/>
                </mxCell>
                <mxCell id="48" value="b" style="text;html=1;align=center;verticalAlign=middle;whiteSpace=wrap;rounded=0;" vertex="1" parent="1">
                    <mxGeometry x="370" y="40" width="60" height="30" as="geometry"/>
                </mxCell>
                <mxCell id="49" value="a &lt;sup&gt;.&lt;/sup&gt; c" style="text;html=1;align=center;verticalAlign=middle;whiteSpace=wrap;rounded=0;" vertex="1" parent="1">
                    <mxGeometry x="370" y="129" width="60" height="30" as="geometry"/>
                </mxCell>
                <mxCell id="50" value="m" style="text;html=1;align=center;verticalAlign=middle;whiteSpace=wrap;rounded=0;" vertex="1" parent="1">
                    <mxGeometry x="328" y="86" width="60" height="30" as="geometry"/>
                </mxCell>
                <mxCell id="51" value="n" style="text;html=1;align=center;verticalAlign=middle;whiteSpace=wrap;rounded=0;" vertex="1" parent="1">
                    <mxGeometry x="409" y="87" width="60" height="30" as="geometry"/>
                </mxCell>
            </root>
        </mxGraphModel>
    </diagram>
</mxfile>